<?xml version="1.0" encoding="UTF-8"?> <svg xmlns="http://www.w3.org/2000/svg" width="135" height="40" viewBox="0 0 135 40" fill="none"> <g clip-path="url(#clip0)"> <path d="M134.144 35.283C134.144 35.7864 134.045 36.2849 133.852 36.7499C133.659 37.2149 133.376 37.6374 133.02 37.9932C132.664 38.349 132.24 38.631 131.775 38.8233C131.309 39.0156 130.811 39.1143 130.307 39.1138H4.73663C3.71888 39.1148 2.74237 38.7119 2.02187 37.9935C1.30136 37.2751 0.895858 36.3002 0.894531 35.283V4.73417C0.895857 3.71659 1.3012 2.74112 2.02156 2.02195C2.74192 1.30278 3.71842 0.898702 4.73663 0.898438H130.306C130.81 0.898437 131.309 0.997659 131.775 1.19043C132.24 1.38321 132.663 1.66577 133.019 2.02196C133.376 2.37815 133.658 2.80101 133.851 3.26638C134.044 3.73174 134.143 4.2305 134.143 4.73417L134.144 35.283Z" fill="white"></path> <path d="M130.303 40.0006H4.73282C3.47906 40.0003 2.27662 39.503 1.38933 38.6177C0.502041 37.7325 0.00238555 36.5316 0 35.2787L0 4.73081C0.00185475 3.47721 0.501181 2.27552 1.38844 1.38937C2.2757 0.50322 3.47844 0.00496434 4.73282 0.00390625L130.302 0.00390625C131.556 0.0054923 132.759 0.503918 133.646 1.38996C134.533 2.27599 135.033 3.47737 135.035 4.73081V35.2787C135.037 37.8832 132.91 40.0006 130.303 40.0006Z" fill="white"></path> <path d="M134.144 35.283C134.144 35.7864 134.045 36.2849 133.852 36.7499C133.659 37.2149 133.376 37.6374 133.02 37.9932C132.664 38.349 132.24 38.631 131.775 38.8233C131.309 39.0156 130.811 39.1143 130.307 39.1138H4.73663C3.71888 39.1148 2.74237 38.7119 2.02187 37.9935C1.30136 37.2751 0.895858 36.3002 0.894531 35.283V4.73417C0.895857 3.71659 1.3012 2.74112 2.02156 2.02195C2.74192 1.30278 3.71842 0.898702 4.73663 0.898438H130.306C130.81 0.898437 131.309 0.997659 131.775 1.19043C132.24 1.38321 132.663 1.66577 133.019 2.02196C133.376 2.37815 133.658 2.80101 133.851 3.26638C134.044 3.73174 134.143 4.2305 134.143 4.73417L134.144 35.283Z" fill="#020202"></path> <path d="M30.1518 19.7923C30.1228 16.5686 32.793 15.0003 32.9151 14.9273C31.4029 12.7239 29.059 12.4228 28.2353 12.3988C26.2667 12.1918 24.3572 13.5761 23.3544 13.5761C22.3315 13.5761 20.7873 12.4188 19.123 12.4529C16.9812 12.4859 14.9776 13.7251 13.8787 15.6495C11.6109 19.5732 13.3023 25.3393 15.475 28.5109C16.5619 30.0652 17.8319 31.7986 19.4943 31.7376C21.1206 31.6715 21.7281 30.7024 23.6906 30.7024C25.6352 30.7024 26.2057 31.7376 27.901 31.6985C29.6464 31.6715 30.7453 30.1382 31.7942 28.5709C33.0502 26.7916 33.5546 25.0373 33.5746 24.9472C33.5346 24.9332 30.1859 23.655 30.1518 19.7923ZM26.9493 10.3124C27.824 9.21923 28.4224 7.73195 28.2563 6.22266C26.9903 6.27867 25.407 7.09782 24.4953 8.16703C23.6886 9.10921 22.9681 10.6535 23.1542 12.1058C24.5763 12.2118 26.0365 11.3886 26.9493 10.3124Z" fill="white"></path> <path d="M53.706 31.5154H51.4331L50.1881 27.6057H45.8607L44.6747 31.5154H42.4619L46.7504 18.2048H49.3985L53.706 31.5154ZM49.8128 25.9653L48.6869 22.4897C48.5678 22.1346 48.3437 21.2984 48.0154 19.9822H47.9754C47.8432 20.5483 47.6321 21.3845 47.3428 22.4897L46.236 25.9653H49.8128ZM64.7128 26.5985C64.7128 28.2308 64.2695 29.521 63.3818 30.4682C62.5871 31.3114 61.5993 31.7324 60.4214 31.7324C59.1494 31.7324 58.2346 31.2794 57.6792 30.3712V35.4072H55.5455V25.0722C55.5455 24.047 55.5184 22.9958 55.4664 21.9176H57.3429L57.462 23.4389H57.502C58.2136 22.2926 59.2935 21.7195 60.7426 21.7195C61.8756 21.7195 62.8213 22.1666 63.5779 23.0618C64.3335 23.959 64.7128 25.1372 64.7128 26.5985ZM62.5391 26.6765C62.5391 25.7423 62.3289 24.9721 61.9066 24.365C61.4452 23.7339 60.8257 23.4179 60.0491 23.4179C59.5227 23.4179 59.0443 23.5939 58.6169 23.9409C58.1886 24.291 57.9084 24.7481 57.7773 25.3142C57.7187 25.5259 57.6855 25.7438 57.6782 25.9633V27.5646C57.6782 28.2618 57.8924 28.8509 58.3207 29.333C58.749 29.8131 59.3055 30.0541 59.99 30.0541C60.7937 30.0541 61.4192 29.7431 61.8666 29.1259C62.3149 28.5068 62.5391 27.6907 62.5391 26.6765ZM75.7587 26.5985C75.7587 28.2308 75.3154 29.521 74.4277 30.4682C73.632 31.3114 72.6452 31.7324 71.4663 31.7324C70.1943 31.7324 69.2795 31.2794 68.7241 30.3712V35.4072H66.5904V25.0722C66.5904 24.047 66.5633 22.9958 66.5113 21.9176H68.3878L68.5069 23.4389H68.5469C69.2575 22.2926 70.3374 21.7195 71.7876 21.7195C72.9195 21.7195 73.8652 22.1666 74.6238 23.0618C75.3784 23.959 75.7587 25.1372 75.7587 26.5985ZM73.584 26.6765C73.584 25.7423 73.3728 24.9721 72.9505 24.365C72.4891 23.7339 71.8716 23.4179 71.095 23.4179C70.5686 23.4179 70.0902 23.5939 69.6608 23.9409C69.2325 24.291 68.9533 24.7481 68.8222 25.3142C68.7571 25.5783 68.7221 25.7933 68.7221 25.9633V27.5646C68.7221 28.2618 68.9372 28.8509 69.3636 29.333C69.7919 29.8121 70.3484 30.0541 71.0349 30.0541C71.8396 30.0541 72.4651 29.7431 72.9115 29.1259C73.3598 28.5068 73.584 27.6907 73.584 26.6765ZM88.1087 27.7817C88.1087 28.9149 87.7124 29.8361 86.9248 30.5472C86.0581 31.3234 84.8481 31.7124 83.2968 31.7124C81.8637 31.7124 80.7147 31.4364 79.848 30.8833L80.3414 29.1059C81.2772 29.66 82.305 29.9361 83.4239 29.9361C84.2286 29.9361 84.8541 29.7541 85.3004 29.393C85.7478 29.0309 85.974 28.5468 85.974 27.9427C85.974 27.4016 85.7868 26.9485 85.4195 26.5795C85.0502 26.2114 84.4397 25.8683 83.5821 25.5533C81.2502 24.6841 80.0832 23.4129 80.0832 21.7405C80.0832 20.6483 80.4956 19.7541 81.3182 19.055C82.1409 18.3569 83.2318 18.0078 84.5889 18.0078C85.8008 18.0078 86.8107 18.2189 87.6123 18.6399L87.0769 20.3783C86.3223 19.9702 85.4706 19.7661 84.5178 19.7661C83.7652 19.7661 83.1747 19.9512 82.7524 20.3193C82.3971 20.6483 82.217 21.0494 82.217 21.5255C82.217 22.0506 82.4221 22.4867 82.8304 22.8287C83.1847 23.1438 83.8313 23.4869 84.766 23.8549C85.9129 24.317 86.7556 24.8551 87.295 25.4732C87.8385 26.0914 88.1087 26.8625 88.1087 27.7817ZM95.1814 23.5179H92.8295V28.1778C92.8295 29.363 93.2438 29.9541 94.0745 29.9541C94.4558 29.9541 94.7721 29.9221 95.0223 29.8551L95.0813 31.4744C94.661 31.6314 94.1075 31.7104 93.422 31.7104C92.5793 31.7104 91.9208 31.4534 91.4454 30.9393C90.972 30.4252 90.7338 29.564 90.7338 28.3518V23.5139H89.3327V21.9136H90.7338V20.1562L92.8295 19.5241V21.9136H95.1814V23.5179ZM105.772 26.6375C105.772 28.1128 105.35 29.324 104.507 30.2712C103.625 31.2464 102.452 31.7324 100.99 31.7324C99.5789 31.7324 98.457 31.2654 97.6204 30.3322C96.7837 29.397 96.3654 28.2188 96.3654 26.7975C96.3654 25.3102 96.7977 24.092 97.6594 23.1448C98.5231 22.1966 99.686 21.7225 101.148 21.7225C102.557 21.7225 103.689 22.1906 104.546 23.1248C105.365 24.031 105.772 25.2012 105.772 26.6375ZM103.56 26.6865C103.56 25.8073 103.37 25.0532 102.989 24.422C102.541 23.6599 101.901 23.2788 101.071 23.2788C100.216 23.2788 99.5609 23.6599 99.1146 24.422C98.7323 25.0532 98.5421 25.8203 98.5421 26.7265C98.5421 27.6067 98.7323 28.3628 99.1146 28.9919C99.5759 29.7541 100.219 30.1351 101.053 30.1351C101.869 30.1351 102.508 29.7461 102.971 28.9729C103.363 28.3268 103.56 27.5676 103.56 26.6865ZM112.711 23.7929C112.489 23.7529 112.263 23.7331 112.038 23.7339C111.287 23.7339 110.707 24.016 110.299 24.5841C109.944 25.0842 109.766 25.7163 109.766 26.4794V31.5154H107.632V24.9401C107.634 23.9326 107.614 22.9252 107.57 21.9186H109.429L109.507 23.7549H109.566C109.792 23.1238 110.146 22.6147 110.633 22.2336C111.078 21.9006 111.619 21.7203 112.175 21.7195C112.372 21.7195 112.55 21.7335 112.709 21.7585L112.711 23.7929ZM122.253 26.2624C122.259 26.5866 122.232 26.9105 122.175 27.2296H115.774C115.798 28.1778 116.108 28.9039 116.703 29.404C117.242 29.8501 117.94 30.0741 118.796 30.0741C119.744 30.0741 120.609 29.9241 121.387 29.621L121.721 31.1003C120.812 31.4964 119.739 31.6934 118.501 31.6934C117.012 31.6934 115.843 31.2554 114.992 30.3812C114.144 29.506 113.718 28.3298 113.718 26.8565C113.718 25.4102 114.114 24.205 114.905 23.2438C115.734 22.2176 116.854 21.7045 118.263 21.7045C119.647 21.7045 120.695 22.2176 121.407 23.2438C121.97 24.057 122.253 25.0652 122.253 26.2624ZM120.219 25.7093C120.234 25.0762 120.093 24.5311 119.804 24.07C119.435 23.4759 118.866 23.1798 118.105 23.1798C117.407 23.1798 116.839 23.4689 116.407 24.049C116.051 24.5101 115.84 25.0642 115.775 25.7073L120.219 25.7093Z" fill="white"></path> <path d="M45.2461 13.4979C44.6527 13.4979 44.1393 13.4689 43.7119 13.4199V6.98468C44.3096 6.8924 44.9136 6.84692 45.5184 6.84865C47.9653 6.84865 49.0923 8.05188 49.0923 10.0133C49.0923 12.2757 47.7612 13.4979 45.2461 13.4979ZM45.6044 7.67381C45.2742 7.67381 44.9929 7.69381 44.7598 7.74182V12.6338C44.8859 12.6538 45.1281 12.6628 45.4683 12.6628C47.0716 12.6628 47.9844 11.7506 47.9844 10.0423C47.9844 8.51897 47.1587 7.67381 45.6044 7.67381ZM52.6041 13.5469C51.225 13.5469 50.3312 12.5177 50.3312 11.1205C50.3312 9.66419 51.244 8.62599 52.6821 8.62599C54.0412 8.62599 54.955 9.60618 54.955 11.0435C54.955 12.5177 54.0132 13.5469 52.6041 13.5469ZM52.6441 9.39214C51.8865 9.39214 51.4011 10.1003 51.4011 11.0905C51.4011 12.0616 51.8965 12.7698 52.6341 12.7698C53.3717 12.7698 53.8671 12.0126 53.8671 11.0705C53.8671 10.1103 53.3817 9.39214 52.6441 9.39214ZM62.8193 8.72301L61.3431 13.4399H60.3814L59.7699 11.3915C59.6178 10.8905 59.4912 10.3821 59.3906 9.86823H59.3705C59.2935 10.3823 59.1474 10.8974 58.9922 11.3915L58.3417 13.4399H57.3699L55.9808 8.72301H57.0587L57.5931 10.9654C57.7192 11.4995 57.8253 12.0036 57.9134 12.4797H57.9334C58.0104 12.0827 58.1365 11.5866 58.3217 10.9754L58.9922 8.72401H59.8469L60.4884 10.9274C60.6436 11.4615 60.7697 11.9856 60.8677 12.4807H60.8958C60.9638 11.9956 61.0709 11.4805 61.216 10.9274L61.7895 8.72401L62.8193 8.72301ZM68.2537 13.4399H67.2049V10.7314C67.2049 9.89723 66.8846 9.47915 66.2531 9.47915C65.6316 9.47915 65.2042 10.0133 65.2042 10.6344V13.4399H64.1554V10.0713C64.1554 9.65419 64.1454 9.2071 64.1164 8.72201H65.0391L65.0881 9.45015H65.1172C65.3994 8.94605 65.9719 8.62599 66.6134 8.62599C67.6042 8.62599 68.2547 9.38314 68.2547 10.6154L68.2537 13.4399ZM71.146 13.4399H70.0962V6.55859H71.146V13.4399ZM74.9701 13.5469C73.592 13.5469 72.6973 12.5177 72.6973 11.1205C72.6973 9.66419 73.61 8.62599 75.0472 8.62599C76.4073 8.62599 77.32 9.60618 77.32 11.0435C77.321 12.5177 76.3782 13.5469 74.9701 13.5469ZM75.0091 9.39214C74.2515 9.39214 73.7661 10.1003 73.7661 11.0905C73.7661 12.0616 74.2625 12.7698 74.9981 12.7698C75.7367 12.7698 76.2311 12.0126 76.2311 11.0705C76.2321 10.1103 75.7477 9.39214 75.0091 9.39214ZM81.4553 13.4399L81.3793 12.8968H81.3513C81.031 13.3339 80.5636 13.5469 79.9711 13.5469C79.1255 13.5469 78.525 12.9548 78.525 12.1587C78.525 10.9944 79.5348 10.3923 81.2832 10.3923V10.3053C81.2832 9.68419 80.9539 9.37313 80.3034 9.37313C79.838 9.37313 79.4297 9.49016 79.0704 9.7232L78.8572 9.03407C79.2936 8.76202 79.838 8.62599 80.4776 8.62599C81.7105 8.62599 82.333 9.27611 82.333 10.5774V12.3147C82.333 12.7908 82.3541 13.1599 82.4011 13.4409L81.4553 13.4399ZM81.3112 11.0905C80.1463 11.0905 79.5618 11.3725 79.5618 12.0416C79.5618 12.5367 79.8631 12.7788 80.2814 12.7788C80.8148 12.7788 81.3112 12.3717 81.3112 11.8186V11.0905ZM87.4262 13.4399L87.3771 12.6828H87.3481C87.0468 13.2549 86.5404 13.5469 85.8329 13.5469C84.695 13.5469 83.8523 12.5467 83.8523 11.1395C83.8523 9.66419 84.726 8.62499 85.9189 8.62499C86.5504 8.62499 86.9978 8.83803 87.25 9.26611H87.271V6.55859H88.3209V12.1687C88.3209 12.6248 88.3319 13.0518 88.3599 13.4399H87.4262ZM87.271 10.6644C87.271 10.0043 86.8337 9.44115 86.1661 9.44115C85.3885 9.44115 84.9131 10.1303 84.9131 11.1005C84.9131 12.0516 85.4065 12.7028 86.1451 12.7028C86.8047 12.7028 87.271 12.1297 87.271 11.4505V10.6644ZM94.9772 13.5469C93.5991 13.5469 92.7054 12.5177 92.7054 11.1205C92.7054 9.66419 93.6181 8.62599 95.0553 8.62599C96.4154 8.62599 97.3281 9.60618 97.3281 11.0435C97.3291 12.5177 96.3874 13.5469 94.9772 13.5469ZM95.0163 9.39214C94.2597 9.39214 93.7743 10.1003 93.7743 11.0905C93.7743 12.0616 94.2697 12.7698 95.0063 12.7698C95.7449 12.7698 96.2393 12.0126 96.2393 11.0705C96.2413 10.1103 95.7559 9.39214 95.0163 9.39214ZM102.969 13.4399H101.919V10.7314C101.919 9.89723 101.599 9.47915 100.967 9.47915C100.346 9.47915 99.9192 10.0133 99.9192 10.6344V13.4399H98.8694V10.0713C98.8694 9.65419 98.8594 9.2071 98.8303 8.72201H99.7531L99.8021 9.45015H99.8312C100.112 8.94605 100.686 8.62499 101.326 8.62499C102.317 8.62499 102.969 9.38213 102.969 10.6144V13.4399ZM110.025 9.50916H108.871V11.7996C108.871 12.3827 109.074 12.6738 109.482 12.6738C109.667 12.6738 109.822 12.6538 109.947 12.6248L109.976 13.4209C109.773 13.4989 109.501 13.5379 109.163 13.5379C108.336 13.5379 107.842 13.0818 107.842 11.8876V9.50916H107.153V8.72301H107.842V7.85884L108.871 7.54778V8.72201H110.025V9.50916ZM115.578 13.4399H114.53V10.7514C114.53 9.90724 114.211 9.48015 113.578 9.48015C113.035 9.48015 112.528 9.84922 112.528 10.5964V13.4399H111.481V6.55859H112.528V9.39214H112.549C112.88 8.87804 113.358 8.62499 113.969 8.62499C114.967 8.62499 115.578 9.40114 115.578 10.6344V13.4399ZM121.266 11.3335H118.119C118.139 12.2267 118.73 12.7308 119.606 12.7308C120.071 12.7308 120.5 12.6528 120.878 12.5077L121.041 13.2359C120.595 13.4299 120.069 13.5269 119.458 13.5269C117.982 13.5269 117.108 12.5948 117.108 11.1495C117.108 9.7032 118.003 8.61599 119.34 8.61599C120.546 8.61599 121.302 9.50916 121.302 10.8584C121.309 11.0176 121.297 11.1771 121.266 11.3335ZM120.305 10.5864C120.305 9.85823 119.937 9.34413 119.267 9.34413C118.664 9.34413 118.188 9.86823 118.12 10.5864H120.305Z" fill="white"></path> </g> <defs> <clipPath id="clip0"> <rect width="135" height="40" fill="white"></rect> </clipPath> </defs> </svg> 