<svg width="100" height="100" viewBox="0 0 100 100" fill="none" xmlns="http://www.w3.org/2000/svg">
<path d="M0 62C0 50.7989 0 45.1984 2.17987 40.9202C4.09734 37.1569 7.15695 34.0973 10.9202 32.1799C15.1984 30 20.799 30 32 30H38C49.201 30 54.8016 30 59.0798 32.1799C62.8431 34.0973 65.9027 37.1569 67.8201 40.9202C70 45.1984 70 50.799 70 62V68C70 79.201 70 84.8016 67.8201 89.0798C65.9027 92.8431 62.8431 95.9027 59.0798 97.8201C54.8016 100 49.201 100 38 100H0V62Z" fill="#3794FC"/>
<path d="M100 32C100 20.7989 100 15.1984 97.8201 10.9202C95.9027 7.15695 92.8431 4.09734 89.0798 2.17987C84.8016 0 79.201 0 68 0H62C50.799 0 45.1984 0 40.9202 2.17987C37.1569 4.09734 34.0973 7.15695 32.1799 10.9202C30 15.1984 30 20.799 30 32V38C30 49.201 30 54.8016 32.1799 59.0798C34.0973 62.8431 37.1569 65.9027 40.9202 67.8201C45.1984 70 50.799 70 62 70H100V32Z" fill="#6BD6FD"/>
<path fill-rule="evenodd" clip-rule="evenodd" d="M69.9995 70C70 69.3538 70 68.6874 70 68V62C70 50.799 70 45.1984 67.8201 40.9202C65.9027 37.1569 62.8431 34.0973 59.0798 32.1799C54.8016 30 49.2011 30 38 30H32C31.3127 30 30.6466 30 30.0005 30.0005C30 30.6466 30 31.3127 30 32V38C30 49.2011 30 54.8016 32.1799 59.0798C34.0973 62.8431 37.1569 65.9027 40.9202 67.8201C45.1984 70 50.799 70 62 70H69.9995Z" fill="#123A68"/>
</svg>
