<svg width="447" height="101" viewBox="0 0 447 101" fill="none" xmlns="http://www.w3.org/2000/svg">
<path d="M0 66C0 55.7554 0 50.6331 1.53826 46.546C3.97278 40.0776 9.07764 34.9728 15.546 32.5383C19.6331 31 24.7554 31 35 31C45.2446 31 50.3669 31 54.454 32.5383C60.9224 34.9728 66.0272 40.0776 68.4617 46.546C70 50.6331 70 55.7554 70 66C70 76.2446 70 81.3669 68.4617 85.454C66.0272 91.9224 60.9224 97.0272 54.454 99.4617C50.3669 101 45.2446 101 35 101H0V66Z" fill="#3794FC"/>
<path d="M100 36C100 25.7554 100 20.6331 98.4617 16.546C96.0272 10.0776 90.9224 4.97278 84.454 2.53826C80.3669 1 75.2446 1 65 1C54.7554 1 49.6331 1 45.546 2.53826C39.0776 4.97278 33.9728 10.0776 31.5383 16.546C30 20.6331 30 25.7554 30 36C30 46.2446 30 51.3669 31.5383 55.454C33.9728 61.9224 39.0776 67.0272 45.546 69.4617C49.6331 71 54.7554 71 65 71H100V36Z" fill="#6BD6FD"/>
<path fill-rule="evenodd" clip-rule="evenodd" d="M69.9914 71C70 69.4798 70 67.8208 70 66C70 55.7554 70 50.6331 68.4617 46.546C66.0272 40.0776 60.9224 34.9728 54.454 32.5383C50.3669 31 45.2446 31 35 31C33.1826 31 31.5264 31 30.0086 31.0086C30 32.5264 30 34.1826 30 36C30 46.2446 30 51.3669 31.5383 55.454C33.9728 61.9224 39.0776 67.0272 45.546 69.4617C49.6331 71 54.7554 71 65 71H69.9914Z" fill="#123A68"/>
<path fill-rule="evenodd" clip-rule="evenodd" d="M295.792 36.384V71.04H280.432V36.384H274V24.768H280.432V23.136C280.432 20.256 280.848 17.6 281.68 15.168C282.512 12.736 283.696 10.656 285.232 8.928C286.768 7.2 288.64 5.84 290.848 4.848C293.056 3.856 295.568 3.36 298.384 3.36C300.432 3.36 302.544 3.6 304.72 4.08C306.896 4.56 309.104 5.248 311.344 6.144C312.88 4.288 314.784 2.8 317.056 1.68C319.328 0.56 322 0 325.072 0C327.312 0 329.488 0.288 331.6 0.864C333.712 1.44 335.792 2.144 337.84 2.976L335.056 14.496C334.096 14.112 333.024 13.76 331.84 13.44C330.656 13.12 329.456 12.96 328.24 12.96C326.128 12.96 324.592 13.632 323.632 14.976C322.672 16.32 322.192 18.016 322.192 20.064V24.768H334.384V36.384H322.192V71.04H306.832V36.384H295.792ZM243.84 72C248.128 72 251.952 71.296 255.312 69.888C258.672 68.48 261.504 66.576 263.808 64.176C266.112 61.776 267.856 58.992 269.04 55.824C270.224 52.656 270.816 49.344 270.816 45.888C270.816 42.432 270.208 39.12 268.992 35.952C267.776 32.784 266.016 30 263.712 27.6C261.408 25.2 258.592 23.28 255.264 21.84C251.936 20.4 248.128 19.68 243.84 19.68C239.552 19.68 235.728 20.4 232.368 21.84C229.008 23.28 226.176 25.2 223.872 27.6C221.568 30 219.824 32.784 218.64 35.952C217.456 39.12 216.864 42.432 216.864 45.888C216.864 49.344 217.456 52.656 218.64 55.824C219.824 58.992 221.568 61.776 223.872 64.176C226.176 66.576 229.008 68.48 232.368 69.888C235.728 71.296 239.552 72 243.84 72ZM243.84 59.04C240.576 59.04 237.888 57.84 235.776 55.44C233.664 53.04 232.608 49.856 232.608 45.888C232.608 43.968 232.896 42.192 233.472 40.56C234.048 38.928 234.832 37.536 235.824 36.384C236.816 35.232 238 34.336 239.376 33.696C240.752 33.056 242.24 32.736 243.84 32.736C247.04 32.736 249.696 33.936 251.808 36.336C253.92 38.736 254.976 41.92 254.976 45.888C254.976 47.808 254.688 49.584 254.112 51.216C253.536 52.848 252.752 54.24 251.76 55.392C250.768 56.544 249.6 57.44 248.256 58.08C246.912 58.72 245.44 59.04 243.84 59.04ZM306.696 24.768H295.656V22.656C295.656 20.736 296.104 19.2 297 18.048C297.896 16.896 299.368 16.32 301.416 16.32C302.248 16.32 303.176 16.416 304.2 16.608C305.224 16.8 306.184 17.088 307.08 17.472C307.016 17.6 306.952 18.032 306.888 18.768C306.824 19.504 306.776 20.288 306.744 21.12C306.712 21.952 306.696 22.72 306.696 23.424V24.768ZM376.848 68.256C372.688 70.752 367.696 72 361.872 72C357.648 72 353.856 71.312 350.496 69.936C347.136 68.56 344.288 66.688 341.952 64.32C339.616 61.952 337.84 59.216 336.624 56.112C335.408 53.008 334.8 49.76 334.8 46.368C334.8 42.72 335.408 39.28 336.624 36.048C337.84 32.816 339.6 29.984 341.904 27.552C344.208 25.12 347.04 23.2 350.4 21.792C353.76 20.384 357.584 19.68 361.872 19.68C366.16 19.68 369.968 20.384 373.296 21.792C376.624 23.2 379.44 25.104 381.744 27.504C384.048 29.904 385.792 32.672 386.976 35.808C388.16 38.944 388.752 42.24 388.752 45.696C388.752 46.592 388.72 47.472 388.656 48.336C388.592 49.2 388.496 49.952 388.368 50.592H351.12C351.376 53.984 352.608 56.56 354.816 58.32C357.024 60.08 359.536 60.96 362.352 60.96C364.592 60.96 366.752 60.416 368.832 59.328C370.912 58.24 372.304 56.768 373.008 54.912L386.064 58.56C384.08 62.528 381.008 65.76 376.848 68.256ZM372.528 41.088H350.832C351.152 37.952 352.288 35.44 354.24 33.552C356.192 31.664 358.672 30.72 361.68 30.72C364.624 30.72 367.088 31.648 369.072 33.504C371.056 35.36 372.208 37.888 372.528 41.088ZM434.232 68.256C430.072 70.752 425.08 72 419.256 72C415.032 72 411.24 71.312 407.88 69.936C404.52 68.56 401.672 66.688 399.336 64.32C397 61.952 395.224 59.216 394.008 56.112C392.792 53.008 392.184 49.76 392.184 46.368C392.184 42.72 392.792 39.28 394.008 36.048C395.224 32.816 396.984 29.984 399.288 27.552C401.592 25.12 404.424 23.2 407.784 21.792C411.144 20.384 414.968 19.68 419.256 19.68C423.544 19.68 427.352 20.384 430.68 21.792C434.008 23.2 436.824 25.104 439.128 27.504C441.432 29.904 443.176 32.672 444.36 35.808C445.544 38.944 446.136 42.24 446.136 45.696C446.136 46.592 446.104 47.472 446.04 48.336C445.976 49.2 445.88 49.952 445.752 50.592H408.504C408.76 53.984 409.992 56.56 412.2 58.32C414.408 60.08 416.92 60.96 419.736 60.96C421.976 60.96 424.136 60.416 426.216 59.328C428.296 58.24 429.688 56.768 430.392 54.912L443.448 58.56C441.464 62.528 438.392 65.76 434.232 68.256ZM429.912 41.088H408.216C408.536 37.952 409.672 35.44 411.624 33.552C413.576 31.664 416.056 30.72 419.064 30.72C422.008 30.72 424.472 31.648 426.456 33.504C428.44 35.36 429.592 37.888 429.912 41.088ZM178.5 46L169.335 71H155.505L140 21.0053L155.505 21L163.087 47.6305L173.147 21H184.301L194.101 47.6305L202.578 21.0053L217 21L201.166 71H187.336L178.5 46Z" fill="#123A68"/>
</svg>
